<svg xmlns:rdf="http://www.w3.org/1999/02/22-rdf-syntax-ns#" xmlns="http://www.w3.org/2000/svg" viewBox="0 0 700 700" version="1.1" xmlns:cc="http://creativecommons.org/ns#" xmlns:xlink="http://www.w3.org/1999/xlink" xmlns:dc="http://purl.org/dc/elements/1.1/">
 <defs>
  <linearGradient id="b" gradientTransform="matrix(1.1288 0 0 1.1288 -20.72 3532.2)">
   <stop offset="0"/>
  </linearGradient>
 </defs>
 <g stroke-linejoin="round" transform="translate(0,-200)" stroke-linecap="round" stroke-width=".5">
  <path d="m0 200h83.26l116.31 134.34-151.9 82.63-47.67 13.98z" stroke="#576fd5" fill="#576fd5"/>
  <path d="m83.26 200h152.54l5.7201 124.17-41.948 10.169z" stroke="#a8b032" fill="#a8b032"/>
  <path d="m235.8 200h133.47l-88.98 112.1-29.236 17.796-9.5336-5.7201z" stroke="#de3b66" fill="#de3b66"/>
  <path d="m280.29 312.1-29.236 17.796 36.863 53.388 27.33 20.338l320.33-203.63h-57.519z" stroke="#b21925" fill="#b21925"/>
  <path d="m369.27 200h208.79l-297.76 112.1z" stroke="#dba93d" fill="#dba93d"/>
  <path d="m315.24 403.62 25.423 95.336 143.64 31.779l167.16-330.74h-15.889z" stroke="#c674a7" fill="#c674a7"/>
  <path d="m651.46 200h48.54v126.72l-72.691 278.38-98.513 19.703-19.703-20.338-24.787-73.726z" stroke="#aff7f4" fill="#aff7f4"/>
  <path d="m700 326.72v291.09l-72.691-12.711z" stroke="#7ad7ec" fill="#7ad7ec"/>
  <path d="m528.8 624.8 27.96 275.2h143.24v-282.19l-72.69-12.71z" stroke="#0d0f7d" fill="#0d0f7d"/>
  <path d="m509.09 604.46 19.703 20.338l27.97 275.2h-88.98l-102.33-156.99-5.72-68.64z" stroke="#4e46f6" fill="#4e46f6"/>
  <path d="m187.49 772.25-47.032-43.854 181.14-75.633 38.134 21.609 5.7201 68.642z" stroke="#ee4dc0" fill="#ee4dc0"/>
  <path d="m365.45 743.01 102.33 156.99h-197.03l-83.26-127.75z" stroke="#cd6d01" fill="#cd6d01"/>
  <path d="m311.43 565.05 10.169 87.709 38.134 21.609 149.36-69.913-24.787-73.726-143.64-31.779z" stroke="#8291ca" fill="#8291ca"/>
  <path d="m62.922 694.71 77.54 33.685 181.14-75.633-10.169-87.709-146.82 43.854z" stroke="#7850db" fill="#7850db"/>
  <path d="m221.81 507.22-57.201 101.69 146.82-43.854 29.236-66.099z" stroke="#1565cf" fill="#1565cf"/>
  <path d="m221.81 507.22 118.85-8.2624-25.423-95.336-27.33-20.338-79.129 62.604z" stroke="#06f121" fill="#06f121"/>
  <path d="m47.668 416.97 161.12 28.918 79.129-62.604-36.863-53.388-9.5336-5.7201-41.948 10.169z" stroke="#5a7083" fill="#5a7083"/>
  <path d="m0 430.95 221.81 76.27-13.02-61.34-161.12-28.91z" stroke="#44a416" fill="#44a416"/>
  <path d="m0 690.26 62.922 4.449l101.69-85.8 57.2-101.69-221.81-76.27z" stroke="#e98ec2" fill="#e98ec2"/>
  <path d="m0 900h270.75l-83.26-127.75-47.03-43.85-77.538-33.69-62.922-4.45z" stroke="#b6ced5" fill="#b6ced5"/>
 </g>
 <g transform="translate(0,-200)">
  <circle id="a" cy="258.03" cx="166.01" r="4" fill="url(#b)"/>
  <use xlink:href="#a" transform="translate(-35.765 31.143)" height="100%" width="100%" y="0" x="0"/>
  <use xlink:href="#a" transform="translate(143.88 -5.9296)" height="100%" width="100%" y="0" x="0"/>
  <use xlink:href="#a" transform="translate(164.18 9.9779)" height="100%" width="100%" y="0" x="0"/>
  <use xlink:href="#a" transform="translate(180.18 53.104)" height="100%" width="100%" y="0" x="0"/>
  <use xlink:href="#a" transform="translate(32.863 154.67)" height="100%" width="100%" y="0" x="0"/>
  <use xlink:href="#a" transform="translate(22.826 212.14)" height="100%" width="100%" y="0" x="0"/>
  <use xlink:href="#a" transform="translate(8.9523 253.02)" height="100%" width="100%" y="0" x="0"/>
  <use xlink:href="#a" transform="translate(70.055 204.11)" height="100%" width="100%" y="0" x="0"/>
  <use xlink:href="#a" transform="translate(246.07 156.85)" height="100%" width="100%" y="0" x="0"/>
  <use xlink:href="#a" transform="translate(451.98 262.06)" height="100%" width="100%" y="0" x="0"/>
  <use xlink:href="#a" transform="translate(509.12 277.11)" height="100%" width="100%" y="0" x="0"/>
  <use xlink:href="#a" transform="translate(484.12 429.39)" height="100%" width="100%" y="0" x="0"/>
  <use xlink:href="#a" transform="translate(255.19 452.06)" height="100%" width="100%" y="0" x="0"/>
  <use xlink:href="#a" transform="translate(205.01 345)" height="100%" width="100%" y="0" x="0"/>
  <use xlink:href="#a" transform="translate(76.017 291.04)" height="100%" width="100%" y="0" x="0"/>
  <use xlink:href="#a" transform="translate(96 356.89)" height="100%" width="100%" y="0" x="0"/>
  <use xlink:href="#a" transform="translate(139.8 463.01)" height="100%" width="100%" y="0" x="0"/>
  <use xlink:href="#a" transform="translate(149.07 519.77)" height="100%" width="100%" y="0" x="0"/>
  <use xlink:href="#a" transform="translate(-22.954 635.98)" height="100%" width="100%" y="0" x="0"/>
 </g>
</svg>